<svg width="1005" height="482" viewBox="0 0 1005 482" fill="none" xmlns="http://www.w3.org/2000/svg">
<path d="M993.226 424.866C978.024 459.385 948.442 474.619 920.158 480.871H89.3206C10.8909 451.59 -30.8437 238.649 85.4596 186.847C149.191 158.46 193.092 153.532 205.483 108.797C257.591 -79.3392 444.43 37.9922 513.58 18.2438C759.503 -52.0028 722.605 292.184 875.842 260.983C946.165 246.668 1037.86 323.513 993.226 424.866Z" fill="#EBF2F9"/>
<path d="M577.315 321.495C577.315 321.495 549.996 341.798 544.669 340.566C539.342 339.335 564.635 318.651 564.635 318.651C555.117 314.078 525.531 316.945 525.531 316.945C525.531 316.945 515.676 348.704 510.817 346.2C505.957 343.696 520.979 318.524 520.979 318.524C510.378 317.885 497.377 325.751 497.377 325.751C479.578 339.798 498.546 361.914 498.546 361.914C498.546 361.914 494.893 372.846 483.653 382.802C483.653 382.802 467.6 394.666 466.485 415.865L469.399 416.125C469.399 416.125 474.018 396.379 482.412 387.041C482.739 386.704 483.21 386.221 483.792 385.634C483.792 385.634 483.792 385.634 483.793 385.634C485.165 384.365 486.125 383.411 486.769 382.705C490.947 378.694 496.718 373.587 499.499 373.091C499.499 373.091 499.359 372.58 499.38 371.693C499.418 372.141 499.457 372.601 499.499 373.091C500.451 384.269 522.15 394.03 535.499 396.037C548.848 398.045 544.721 392.561 540.121 384.431C535.522 376.3 520.966 372.661 517.645 368.917C514.324 365.172 521.19 365.163 529.234 368.835C537.276 372.506 538.378 382.294 551.28 388.469C564.183 394.644 583.596 373.248 583.596 373.248C573.313 372.726 558.629 361.566 559.161 358.152C559.693 354.737 584.087 364.043 588.257 364.489C592.427 364.936 601.915 359.752 603.383 342.965C604.851 326.179 577.315 321.495 577.315 321.495Z" fill="#82B378"/>
<path d="M432.226 334.102C432.226 334.102 462.4 317.215 448.319 294.298C448.319 294.298 437.054 280.225 424.984 276.607C424.984 276.607 431.421 310.782 424.984 311.586C418.547 312.391 420.558 272.989 420.558 272.989C420.558 272.989 388.775 257.71 376.303 258.917C376.303 258.917 396.017 292.288 389.58 291.483C383.143 290.679 361.015 256.906 361.015 256.906C361.015 256.906 328.427 250.876 323.197 270.174C317.967 289.473 326.415 299.123 331.243 300.329C336.071 301.535 367.05 301.133 366.245 305.154C365.44 309.175 344.52 315.607 332.852 311.989C332.852 311.989 345.727 343.751 362.624 342.143C379.522 340.535 384.752 330.081 395.212 329.277C405.673 328.473 413.316 331.287 408.086 334.102C402.856 336.916 385.154 335.024 376.705 342.202C368.257 349.38 361.417 353.803 377.108 357.019C392.798 360.236 420.961 358.226 426.593 346.164C432.225 334.102 432.226 334.102 432.226 334.102Z" fill="#A8D29F"/>
<path d="M440.272 363.452C431.823 347.771 432.226 334.102 432.226 334.102C422.57 303.545 338.083 276.205 338.083 276.205C445.502 319.627 426.593 346.163 426.593 346.163C429.488 347.851 433.828 355.898 436.841 362.072C437.27 363.122 437.949 364.576 438.958 366.55C439.367 367.442 439.695 368.173 439.92 368.682C445.451 382.512 442.521 406.394 442.521 406.394L445.873 407.294C453.301 383.225 440.272 363.452 440.272 363.452Z" fill="#82B378"/>
<path d="M480.23 310.813C480.23 310.813 440.455 288.553 459.017 258.343C459.017 258.343 473.866 239.794 489.776 235.024C489.776 235.024 481.29 280.073 489.776 281.133C498.261 282.193 495.61 230.254 495.61 230.254C495.61 230.254 537.506 210.114 553.947 211.705C553.947 211.705 527.96 255.694 536.445 254.634C544.931 253.574 574.099 209.055 574.099 209.055C574.099 209.055 617.056 201.105 623.95 226.544C630.845 251.984 619.708 264.704 613.344 266.294C606.98 267.883 566.144 267.353 567.205 272.653C568.265 277.953 595.843 286.433 611.223 281.663C611.223 281.663 594.252 323.532 571.978 321.412C549.704 319.292 542.809 305.512 529.02 304.453C515.232 303.393 505.155 307.103 512.05 310.813C518.944 314.523 542.279 312.028 553.416 321.491C564.553 330.952 573.568 336.782 552.885 341.022C532.202 345.262 495.079 342.612 487.654 326.712C480.23 310.813 480.23 310.813 480.23 310.813Z" fill="#A8D29F"/>
<path d="M604.328 234.494C604.328 234.494 492.958 270.534 480.23 310.813C480.23 310.813 480.76 328.833 469.623 349.502C469.623 349.502 452.448 375.567 462.24 407.294L466.658 406.108C466.658 406.108 462.796 374.628 470.087 356.397C470.385 355.726 470.816 354.762 471.355 353.586C472.685 350.984 473.581 349.067 474.146 347.683C478.117 339.544 483.839 328.937 487.655 326.712C487.655 326.712 462.729 291.733 604.328 234.494Z" fill="#82B378"/>
<path d="M413.924 307.064C413.924 307.064 479.753 288.272 496.288 306.15C510.773 321.811 550.054 383.805 552.122 420.498C554.131 456.151 516.368 479.594 477.522 479.594H408.528L413.924 307.064Z" fill="#F1A34F"/>
<path d="M368.363 325.335C368.363 325.335 461.435 283.082 479.064 310.682C488.425 325.338 514.184 383.805 516.085 420.498C517.933 456.151 483.206 479.593 447.482 479.593H384.034L368.363 325.335Z" fill="#D16E24"/>
<path d="M184.851 195.35C184.851 195.35 300.621 192.218 344.812 192.316C367.547 192.366 366.983 209.564 377.906 229.49C399.783 269.398 436.108 338.044 433.218 348.77C429.104 364.041 274.131 374.613 263.16 371.089C252.188 367.565 184.851 195.35 184.851 195.35Z" fill="#E78B37"/>
<path opacity="0.4" d="M275.499 226.28C275.499 226.28 277.066 203.572 271.581 205.53C266.096 207.487 231.228 239.201 236.713 313.981L252.776 327.684L375.402 307.325L275.499 226.28Z" fill="#C44F00"/>
<path d="M431.383 318.315L390.082 338.705C390.082 338.705 354.689 208.662 352.338 198.744C351.292 194.324 348.064 192.727 344.812 192.315C350.536 191.795 354.7 191.755 354.7 191.755C365.968 191.755 375.982 198.928 379.598 209.589C387.484 232.841 402.007 275.721 416.718 319.395C420.566 317.856 425.145 316.091 430.199 314.274L431.383 318.315Z" fill="#F1A34F"/>
<path d="M348.717 325.358C348.717 325.358 482.191 313.546 498.646 329.296C506.286 336.608 510.576 369.72 512.98 403.099C515.978 444.734 482.213 480.362 440.68 479.766L295.985 479.831L348.717 325.358Z" fill="#DF812F"/>
<path d="M298.759 164.422C294.936 163.566 290.971 164.555 288.291 165.549C288.772 164.61 290.074 163.923 290.074 163.923C288.304 164.189 285.038 167.02 285.038 167.02C258.719 165.138 265.606 200.919 268.561 208.819C271.511 216.718 274.403 225.967 264.854 236.774C246.065 258.039 273.159 276.884 273.159 276.884C273.374 276.936 289.434 291.639 289.434 291.639C286.851 285.315 306.397 241.818 318.925 226.754C321.025 219.978 319.351 209.649 319.214 208.838C320.958 216.9 320.96 221.72 320.516 224.57C330.055 208.316 308.89 166.69 298.759 164.422Z" fill="#B5453C"/>
<path d="M399.692 226.867C400.083 226.28 403.414 216.101 406.939 216.296C410.465 216.492 415.95 217.08 417.321 216.688C418.693 216.296 423.292 212.827 424.08 213.654C426.039 215.709 421.631 222.071 418.497 223.05C415.363 224.029 410.27 222.56 409.094 223.735C407.919 224.91 408.115 229.119 408.115 229.119L399.692 226.867Z" fill="#FFB27D"/>
<path d="M492.923 452.176C492.54 456.33 498.326 457.34 505.028 457.673C511.729 458.007 509.704 459.379 518.888 461.041C528.072 462.703 531.753 460.192 532.418 458.952C533.01 457.852 528.74 456.131 524.189 454.186C523.617 453.943 523.043 453.693 522.47 453.442C517.349 451.192 514.475 446.602 510.482 442.346C506.7 438.315 503.109 425.409 503.109 425.409L490.628 422.745C490.628 422.745 494.133 434.361 495.349 439.32C496.065 442.237 495.009 445.498 494.072 447.98C493.566 449.331 493.057 450.713 492.923 452.176Z" fill="#FFB27D"/>
<path d="M505.028 457.673C511.729 458.007 509.704 459.379 518.888 461.041C528.072 462.703 531.753 460.192 532.418 458.952C533.009 457.852 528.74 456.131 524.189 454.186L524.118 454.263C524.118 454.263 517.66 456.455 510.207 454.429C504.132 452.781 498.257 449.152 494.072 447.98C493.567 449.331 493.057 450.713 492.924 452.176C492.54 456.33 498.326 457.34 505.028 457.673Z" fill="#C65447"/>
<path d="M368.643 304.277C368.643 304.277 451.576 298.039 467.189 307.886C482.802 317.734 507.842 432.433 507.842 432.433C507.842 432.433 506.296 433.672 502.845 434.045C499.635 434.392 492.565 432.506 492.565 432.506C492.565 432.506 456.578 381.185 454.044 368.256C451.509 355.327 452.127 343.791 446.356 343.481C440.584 343.172 368.632 352.223 357.749 333.062C346.865 313.901 355.862 294.934 355.862 294.934L368.643 304.277Z" fill="#AA413E"/>
<path d="M407.97 239.169C402.332 253.436 388.714 276.688 385.196 277.569C382.23 278.309 367.731 275.001 355.95 270.984C349.055 268.631 343.096 266.035 340.925 263.866C335.049 257.993 315.705 223.491 315.705 223.491C315.705 223.491 333.874 221.191 342.493 226.28C351.112 231.37 371.876 254.862 375.01 254.078C378.144 253.295 393.031 227.063 398.908 224.714C398.908 224.714 407.919 222.756 410.27 229.021C410.861 230.595 409.866 234.373 407.97 239.169Z" fill="#699DEE"/>
<path d="M461.19 465.488C460.806 469.642 466.593 470.652 473.294 470.985C479.995 471.319 477.97 472.691 487.154 474.353C496.338 476.015 500.019 473.504 500.684 472.263C501.276 471.163 497.006 469.443 492.455 467.498C491.883 467.255 491.31 467.005 490.736 466.754C485.615 464.504 482.741 459.914 478.748 455.658C474.966 451.627 471.375 438.721 471.375 438.721L458.894 436.057C458.894 436.057 462.399 447.673 463.615 452.632C464.331 455.549 463.275 458.81 462.338 461.292C461.833 462.643 461.323 464.025 461.19 465.488Z" fill="#FFB27D"/>
<path d="M473.294 470.985C479.996 471.319 477.97 472.691 487.154 474.353C496.338 476.015 500.019 473.504 500.684 472.263C501.276 471.163 497.006 469.443 492.455 467.498L492.384 467.575C492.384 467.575 485.927 469.767 478.473 467.741C472.398 466.093 466.523 462.464 462.338 461.292C461.833 462.642 461.323 464.025 461.19 465.488C460.806 469.642 466.592 470.652 473.294 470.985Z" fill="#C65447"/>
<path d="M407.97 239.169C402.332 253.436 388.714 276.688 385.196 277.569C382.23 278.309 367.731 275.001 355.95 270.984C351.072 266.826 348.079 263.232 347.59 262.5C347.977 262.645 375.441 273.052 380.886 270.718C385.823 268.603 399.793 244.779 407.97 239.169Z" fill="#4A75CB"/>
<path d="M318.153 227.549C318.242 227.56 311.81 233.86 305.58 234.043C299.72 234.22 294.045 228.29 294.114 228.252C296.266 227.098 295.965 223.751 291.786 210.248L292.884 210.136L311.348 208.268C311.348 208.268 312.625 213.865 314.19 219.027C315.501 223.362 317.02 227.389 318.153 227.549Z" fill="#FFB27D"/>
<path d="M311.348 208.267C311.348 208.267 312.625 213.864 314.19 219.027C304.363 221.726 296.498 214.415 292.884 210.136L311.348 208.267Z" fill="#E2915A"/>
<path d="M352.4 309.413C352.4 309.413 426.073 312.897 441.29 323.345C456.508 333.792 477.061 449.379 477.061 449.379C477.061 449.379 475.469 450.556 472.005 450.794C468.784 451.017 461.793 448.857 461.793 448.857C461.793 448.857 427.833 396.176 425.804 383.158C423.774 370.14 424.842 358.636 419.087 358.103C413.331 357.57 341.081 363.815 330.953 344.245C320.824 324.675 352.4 309.413 352.4 309.413Z" fill="#C65447"/>
<path d="M290.507 208.79C290.507 208.79 282.937 202.286 279.606 195.766C277.227 191.111 274.16 172.102 293.308 169.131C293.308 169.131 298.797 168.029 304.838 169.881C309.643 171.354 317.164 175.404 315.602 193.285L315.575 199.173L290.507 208.79Z" fill="#B5453C"/>
<path d="M352.809 315.676C352.162 315.68 351.253 315.637 350.188 315.555C345.882 315.226 339.018 314.306 336.617 313.589C316.346 307.537 296.871 300.07 288.577 273.842C287.574 270.671 286.736 267.225 286.078 263.475L289.239 251.432L295.406 226.01C295.406 226.01 302.991 230.063 310.038 228.5C313.647 227.698 315.704 223.493 315.704 223.493C315.704 223.493 353.855 238.418 366.783 269.348C379.712 300.278 384.151 295.58 388.068 302.236C391.986 308.891 374.619 315.547 352.809 315.676Z" fill="#699DEE"/>
<path d="M316.095 212.159C316.095 212.159 293.159 219.574 288.758 205.229C284.357 190.884 278.433 182.179 292.891 176.839C307.349 171.498 311.887 176.096 314.521 180.527C317.155 184.958 321.947 209.861 316.095 212.159Z" fill="#FFB27D"/>
<path d="M303.282 173.283C303.282 173.283 302.115 192.045 293.189 197.49C284.264 202.935 279.27 201.624 279.27 201.624C279.27 201.624 284.897 193.458 283.293 182.691C283.293 182.691 296.073 166.723 303.282 173.283Z" fill="#B5453C"/>
<path d="M302.136 175.128C302.136 175.128 307.998 177.448 310.264 180.751C312.529 184.055 315.345 191.419 317.461 190.494C317.461 190.494 318.719 177.6 311.397 172.758C303.633 167.623 302.136 175.128 302.136 175.128Z" fill="#B5453C"/>
<path d="M350.188 315.555C345.882 315.226 339.018 314.306 336.617 313.589C316.347 307.537 296.872 300.07 288.577 273.842C288.546 273.65 288.511 273.459 288.476 273.263L291.288 271.051C297.039 266.529 304.797 265.495 311.539 268.338C327.551 275.095 349.546 287.345 350.188 315.555Z" fill="#4A75CB"/>
<path d="M295.406 226.011C295.406 226.011 271.712 229.568 267.794 244.428C263.876 259.287 260.395 307.833 263.921 311.668C267.447 315.503 277.98 311.055 280.331 309.138C282.682 307.22 294.827 257.849 294.827 257.849C294.827 257.849 300.767 235.534 295.406 226.011Z" fill="#699DEE"/>
<path d="M331.48 294.24C331.48 294.24 345.109 291.604 346.648 292.263C348.186 292.922 356.76 300.611 355.88 302.149C355.001 303.686 351.484 304.785 347.527 303.467C343.57 302.149 334.997 301.49 333.458 299.513C331.919 297.535 331.48 294.24 331.48 294.24Z" fill="#FFB27D"/>
<path d="M335.144 292.336C335.144 292.336 281.946 291.457 269.196 299.805C269.196 299.805 261.722 307.494 263.92 311.668C266.119 315.842 272.933 315.183 276.011 314.963C279.088 314.743 332.945 302.441 332.945 302.441C332.945 302.441 339.1 297.828 335.144 292.336Z" fill="#699DEE"/>
<path d="M289.864 307.064C289.864 307.064 350.401 288.272 365.607 306.15C378.927 321.811 415.051 383.805 416.952 420.498C418.8 456.151 384.073 479.594 348.349 479.594H284.901L289.864 307.064Z" fill="#F1A34F"/>
<path d="M380.909 420.498C379.007 383.805 353.249 325.338 343.888 310.682C330.232 289.302 271.308 309.837 245.441 320.179C230.731 276.504 216.206 233.626 208.321 210.374C204.705 199.71 194.692 192.538 183.425 192.538C183.425 192.538 141.361 186.328 134.852 242.332C114.015 421.6 130.757 479.408 205.502 479.854C214.876 479.91 233.198 479.744 248.856 479.568L248.858 479.593H312.306C348.029 479.593 382.757 456.151 380.909 420.498Z" fill="#F1A34F"/>
<path d="M380.911 420.38C379.007 383.58 353.251 324.943 343.888 310.246C332.264 291.991 287.837 304.199 258.924 314.632C253.87 316.454 249.29 318.225 245.443 319.768C230.732 275.966 216.209 232.962 208.322 209.642C204.706 198.95 194.692 191.756 183.425 191.756C183.425 191.756 179.261 191.795 173.537 192.317C173.533 192.317 173.533 192.317 173.529 192.317C164.307 193.158 151.049 195.255 144.695 200.465C140.385 203.999 137.423 219.505 134.853 241.695C128.777 294.111 125.897 336.177 126.716 369.479C127.135 386.559 128.53 401.332 130.967 414.018C132.671 422.904 134.884 430.766 137.638 437.673C149.568 467.637 171.55 479.707 205.501 479.911C209.447 479.935 214.978 479.919 221.231 479.88C229.831 479.825 239.789 479.722 248.855 479.621L248.859 479.648H312.307C348.029 479.649 382.76 456.136 380.911 420.38Z" fill="#D16E24"/>
<path d="M244.744 317.318C235.197 321.066 224.617 325.217 216.054 328.577C207.684 297.802 183.011 206.968 181.062 198.743C180.018 194.324 176.789 192.725 173.537 192.317C179.26 191.795 183.427 191.755 183.427 191.755C194.693 191.755 204.705 198.93 208.323 209.59C216.084 232.473 230.273 274.367 244.744 317.318Z" fill="#F1A34F"/>
<path opacity="0.4" d="M264.232 346.52C259.757 333.122 231.883 337.307 231.883 337.307C231.883 337.307 212.956 360.759 207.448 361.315C201.943 361.875 218.805 338.705 218.805 338.705C208.138 337.867 180.948 348.473 180.948 348.473C180.948 348.473 182.672 375.833 177.164 375.277C171.659 374.717 177.164 350.987 177.164 350.987C166.84 353.5 157.203 363.273 157.203 363.273C145.16 379.184 170.97 390.91 170.97 390.91C170.97 390.91 171.314 400.401 164.086 411.289C164.086 411.289 155.001 422.483 157.916 436.957H149.919C151.451 426.538 145.038 418.638 145.038 418.638C139.557 410.377 139.82 403.177 139.82 403.177C139.82 403.177 159.397 394.281 150.26 382.211C150.26 382.211 142.95 374.795 135.118 372.892C135.118 372.892 139.295 390.891 135.118 391.317C130.942 391.74 132.246 370.986 132.246 370.986C132.246 370.986 130.009 370.112 126.714 368.961C127.134 385.992 128.528 400.721 130.965 413.371C133.386 412.4 135.243 411.132 136.164 409.531C136.32 409.252 136.473 408.99 136.618 408.736C136.399 409.26 136.164 409.531 136.164 409.531C138.041 410.42 140.857 414.66 142.812 417.909C143.091 418.465 143.533 419.229 144.184 420.262C144.45 420.736 144.666 421.124 144.811 421.394C147.067 425.97 147.153 432.634 146.906 436.957H117.876V438.213H119.565C120.184 454.896 133.081 469.069 151.173 474.996H125.081C121.633 474.996 118.84 477.263 118.84 480.059H221.355C221.355 479.71 221.312 479.37 221.23 479.041C220.65 476.735 218.135 474.996 215.118 474.996H189.026C207.118 469.069 220.011 454.896 220.634 438.213H221.81V436.957H167.922C169.167 434.741 170.688 432.572 172.47 430.99C172.678 430.817 172.952 430.59 173.285 430.317C174.167 429.655 174.782 429.158 175.201 428.786C177.912 426.672 181.665 423.974 183.471 423.716C183.471 423.716 183.381 423.445 183.397 422.975C183.42 423.214 183.448 423.457 183.471 423.716C184.09 429.6 198.171 434.745 206.833 435.802C215.495 436.859 212.819 433.969 209.834 429.686C206.848 425.403 197.403 423.489 195.248 421.515C193.093 419.542 197.548 419.538 202.77 421.472C207.988 423.406 208.702 428.563 217.074 431.812C225.446 435.066 238.046 423.798 238.046 423.798C231.373 423.52 221.846 417.643 222.19 415.846C222.535 414.045 238.363 418.947 241.07 419.182C243.777 419.416 249.932 416.688 250.884 407.843C251.84 399.003 233.971 396.536 233.971 396.536C233.971 396.536 229.849 399.022 225.195 401.524C224.278 400.557 222.786 399.489 221.042 398.294C222.578 397.19 223.961 396.243 224.819 395.659C226.539 396.039 228.415 396.329 230.507 396.493C244.96 397.609 255.973 375.555 255.973 375.555C245.994 378.068 228.098 373.601 227.408 370.809C226.719 368.018 253.218 368.296 257.348 367.458C261.481 366.62 268.706 359.921 264.232 346.52ZM175.785 399.281C175.749 399.238 175.455 398.886 175.185 398.236C175.377 398.572 175.577 398.913 175.785 399.281ZM173.191 428.829C173.191 428.829 168.451 431.679 165.144 436.957H161.724C161.3 431.413 161.136 421.52 164.388 414.922C164.58 414.566 164.858 414.061 165.211 413.439C165.642 412.753 166.002 412.158 166.304 411.641C166.601 411.129 166.836 410.694 167.021 410.33C169.598 406.043 173.313 400.456 175.789 399.285C176.4 400.35 177.332 401.306 178.508 402.155C173.806 409.261 182.856 417.828 182.856 417.828C182.856 417.828 180.486 423.587 173.191 428.829ZM211.205 393.678C203.804 392.022 194.88 392.332 191.616 390.91C187.142 388.953 193.681 386.999 202.629 387.559C208.651 387.935 212.647 391.341 219.017 393.87C216.537 393.694 213.799 393.651 211.205 393.678Z" fill="#C44F00"/>
<path d="M166.695 403.392C166.695 403.392 154.386 389.04 165.936 379.925C165.936 379.925 174.373 374.821 181.252 375.236C181.252 375.236 171.504 391.57 174.658 393.195C177.811 394.82 184.206 374.211 184.206 374.211C184.206 374.211 203.405 372.35 209.581 375.318C209.581 375.318 193.169 388.74 196.625 389.539C200.082 390.338 217.81 377.164 217.81 377.164C217.81 377.164 235.679 380.203 234.726 391.096C233.773 401.99 227.616 405.353 224.91 405.064C222.204 404.774 206.374 398.735 206.029 400.951C205.684 403.167 215.213 410.409 221.885 410.747C221.885 410.747 209.288 424.631 200.915 420.625C192.542 416.617 191.828 410.266 186.609 407.883C181.389 405.501 176.934 405.507 179.089 407.937C181.244 410.366 190.69 412.728 193.674 418.004C196.659 423.28 199.337 426.838 190.675 425.536C182.012 424.233 167.931 417.899 167.313 410.645C166.696 403.392 166.695 403.392 166.695 403.392Z" fill="#82B378"/>
<path d="M225.946 391.39C225.946 391.39 177.413 389.521 166.695 403.392C166.695 403.392 164.325 410.486 157.031 416.946C157.031 416.946 146.613 424.646 145.89 438.402L147.781 438.571C147.781 438.571 150.779 425.758 156.225 419.699C156.437 419.48 156.745 419.165 157.125 418.781C158.008 417.964 158.624 417.352 159.042 416.895C161.754 414.29 165.506 410.967 167.314 410.645C167.313 410.645 162.607 393.46 225.946 391.39Z" fill="#82B378"/>
<path d="M123.658 385.344C123.658 385.344 143.239 374.385 134.101 359.514C134.101 359.514 126.791 350.382 118.959 348.034C118.959 348.034 123.136 370.211 118.959 370.733C114.781 371.254 116.087 345.686 116.087 345.686C116.087 345.686 95.462 335.771 87.3687 336.554C87.3687 336.554 100.161 358.209 95.9841 357.688C91.8069 357.166 77.4478 335.25 77.4478 335.25C77.4478 335.25 56.3005 331.336 52.9068 343.86C49.5127 356.384 54.9954 362.645 58.1284 363.428C61.2611 364.211 81.3639 363.95 80.8422 366.559C80.3202 369.168 66.7438 373.342 59.1729 370.994C59.1729 370.994 67.5272 391.606 78.4926 390.562C89.4579 389.518 92.8517 382.735 99.6399 382.213C106.428 381.692 111.388 383.518 107.994 385.344C104.6 387.17 93.1127 385.943 87.6304 390.601C82.1477 395.259 77.7095 398.128 87.8914 400.216C98.0733 402.303 116.349 400.998 120.004 393.172C123.658 385.344 123.658 385.344 123.658 385.344Z" fill="#A8D29F"/>
<path d="M128.88 404.39C123.397 394.215 123.658 385.344 123.658 385.344C117.392 365.515 62.5664 347.773 62.5664 347.773C132.274 375.951 120.003 393.171 120.003 393.171C121.881 394.266 124.698 399.488 126.653 403.494C126.931 404.176 127.372 405.119 128.027 406.4C128.292 406.979 128.504 407.453 128.651 407.784C132.24 416.758 130.339 432.256 130.339 432.256L132.514 432.84C137.335 417.221 128.88 404.39 128.88 404.39Z" fill="#82B378"/>
<path d="M154.809 370.231C154.809 370.231 128.998 355.786 141.043 336.183C141.043 336.183 150.68 324.145 161.004 321.05C161.004 321.05 155.497 350.284 161.004 350.972C166.51 351.659 164.789 317.955 164.789 317.955C164.789 317.955 191.977 304.886 202.645 305.918C202.645 305.918 185.782 334.463 191.289 333.775C196.795 333.088 215.723 304.198 215.723 304.198C215.723 304.198 243.599 299.039 248.073 315.548C252.547 332.056 245.32 340.31 241.19 341.342C237.06 342.373 210.561 342.029 211.249 345.469C211.937 348.908 229.833 354.41 239.813 351.315C239.813 351.315 228.8 378.485 214.347 377.11C199.892 375.734 195.419 366.792 186.471 366.104C177.523 365.416 170.984 367.824 175.458 370.231C179.932 372.639 195.074 371.02 202.302 377.16C209.529 383.3 215.379 387.083 201.957 389.835C188.536 392.586 164.446 390.867 159.627 380.549C154.809 370.231 154.809 370.231 154.809 370.231Z" fill="#A8D29F"/>
<path d="M235.339 320.706C235.339 320.706 163.069 344.093 154.809 370.231C154.809 370.231 155.153 381.924 147.926 395.337C147.926 395.337 136.781 412.251 143.135 432.84L146.002 432.07C146.002 432.07 143.496 411.642 148.227 399.812C148.42 399.376 148.7 398.751 149.05 397.988C149.913 396.299 150.494 395.055 150.861 394.157C153.438 388.876 157.151 381.993 159.627 380.549C159.627 380.549 143.452 357.85 235.339 320.706Z" fill="#82B378"/>
<path d="M103.38 426.961C103.38 454.866 126.016 477.488 153.94 477.488C181.863 477.488 204.499 454.866 204.499 426.961H103.38Z" fill="#699DEE"/>
<path d="M166.381 477.101C164.324 477.358 162.228 477.488 160.099 477.488C132.177 477.488 109.542 454.865 109.542 426.961H122.103C122.103 452.741 141.422 474.01 166.381 477.101Z" fill="#A1C7FF"/>
<path d="M198.96 473.825H108.92C105.475 473.825 102.682 476.616 102.682 480.059H205.197C205.197 476.616 202.405 473.825 198.96 473.825Z" fill="#4A75CB"/>
<path d="M205.649 426.961H101.718V428.511H205.649V426.961Z" fill="#4A75CB"/>
<path d="M763.616 329.314V377.836C763.616 386.361 761.206 393.257 758.227 393.257H663.147C660.168 393.257 657.758 386.361 657.758 377.836V329.314C657.758 320.789 666.161 312.894 690.807 313.168L758.227 313.893C761.206 313.893 763.616 320.789 763.616 329.314Z" fill="#F1A34F"/>
<path d="M776.213 329.314V377.836C776.213 386.361 773.803 393.257 770.823 393.257H675.745C672.765 393.257 670.355 386.361 670.355 377.836V329.314C670.355 320.789 679.306 312.62 692.998 312.894L770.823 313.893C773.803 313.893 776.213 320.789 776.213 329.314Z" fill="#E78B37"/>
<path d="M752.769 271.12C754.064 268.259 752.122 148.822 781.262 150.252C810.402 151.683 864.798 153.113 864.798 153.113C864.798 153.113 889.405 155.258 874.511 213.904C859.617 272.55 862.855 365.525 862.855 365.525H755.359L752.769 271.12Z" fill="#F1A34F"/>
<path d="M853.779 213.914C851.982 220.919 850.492 228.407 849.178 236.157C843.92 267.552 842.299 303.326 841.905 329.292C841.598 350.747 842.123 365.504 842.123 365.504H734.645L732.06 271.099C733.33 268.253 731.402 148.802 760.539 150.247C775.436 150.991 796.95 151.692 814.388 152.261C816.579 152.305 818.726 152.393 820.785 152.437C834.28 152.831 844.095 153.093 844.095 153.093C844.095 153.093 868.676 155.239 853.779 213.914Z" fill="#E78B37"/>
<path d="M786.269 453.499V390.498C786.269 387.827 784.034 385.594 781.361 385.594H781.317C780.441 385.594 779.608 385.857 778.907 386.294C777.418 387.126 776.41 388.702 776.41 390.498V453.585C776.22 453.616 776.03 453.647 775.84 453.683C761.732 455.872 750.252 466.205 746.396 479.736H816.807C812.842 465.865 800.908 455.367 786.269 453.499Z" fill="#D16E24"/>
<path opacity="0.4" d="M849.09 234.274C846.461 193.99 825.386 159.53 820.785 152.437L774.604 147.872C774.604 147.872 739.004 171.407 747.767 261.992C752.286 308.702 771.56 278.109 789.17 237.515L785.558 325.482C785.558 325.482 828.541 328.416 841.905 329.292C842.299 303.326 843.92 267.552 849.178 236.157C849.178 235.544 849.134 234.888 849.09 234.274Z" fill="#C44F00"/>
<path d="M778.908 386.295C777.418 387.127 776.41 388.703 776.41 390.498V467.695C776.41 469.533 777.418 471.11 778.908 471.898C780.354 471.066 781.361 469.489 781.361 467.695V390.498C781.361 388.703 780.354 387.126 778.908 386.295Z" fill="#F1A34F"/>
<path d="M775.841 453.683C761.732 455.872 750.252 466.206 746.397 479.736H805.285C801.429 466.205 789.993 455.872 775.841 453.683Z" fill="#F1A34F"/>
<path d="M864.392 370.925L861.961 384.869C861.961 387.846 861.982 393.257 859.002 393.257H691.628C688.648 393.257 686.238 390.848 686.238 387.871V370.925C686.238 367.948 688.648 365.54 691.628 365.54H859.002C861.982 365.54 864.392 367.948 864.392 370.925Z" fill="#F1A34F"/>
<path d="M663.06 469.586C663.367 471.075 663.674 472.608 663.586 474.184C663.367 475.06 662.797 475.717 661.964 476.242L661.176 477.731C660.343 478.125 658.328 478.431 655.743 478.694L655.699 477.468C655.348 477.468 654.998 477.468 654.647 477.512V477.468C651.58 477.512 647.768 477.775 643.124 479.613C643.08 479.613 643.036 479.657 642.992 479.657C642.16 479.701 641.328 479.745 640.583 479.789H629.278C623.845 479.001 621.699 476.812 621.304 475.717C621.304 475.41 625.379 473.397 628.753 472.433C628.797 472.433 628.884 472.389 629.015 472.389C629.497 472.214 630.418 471.863 630.637 471.819C631.25 471.601 631.951 471.425 632.565 471.25C638.217 469.586 642.029 465.821 646.498 461.661C651.624 456.888 658.591 435.608 657.671 435.214L669.194 436.702C669.194 436.702 659.949 455.181 660.694 460.917C661.001 463.456 661.92 465.602 662.534 467.791C662.578 467.879 662.578 468.011 662.622 468.099C662.753 468.405 662.841 468.711 662.928 469.018C662.972 469.236 663.016 469.411 663.06 469.586Z" fill="#EF9A60"/>
<path d="M808.073 309.781L758.514 307.757C758.514 307.757 683.137 312.62 676.744 323.569L648.319 456.434C648.319 456.434 649.894 458.555 655.232 459.469C658.056 459.953 664.202 458.555 664.202 458.555C664.202 458.555 701.012 411.516 705.744 381.983C709.699 357.302 711.263 354.723 724.802 355.235C738.342 355.747 779.889 359.017 799.63 355.196C819.371 351.375 808.073 309.781 808.073 309.781Z" fill="#233862"/>
<path d="M663.805 472.958C663.805 473.396 663.761 473.834 663.586 474.184C663.367 475.06 662.797 475.717 661.964 476.242C661.877 476.329 661.79 476.373 661.702 476.417C661.702 476.417 661.702 476.417 661.658 476.417C661.614 476.461 661.57 476.461 661.526 476.505C660.08 477.38 658.153 477.38 655.699 477.468H654.647C651.58 477.512 647.768 477.775 643.124 479.613C643.08 479.613 643.036 479.657 642.992 479.657C642.861 479.701 642.774 479.745 642.642 479.789H623.495C620.866 478.738 620.34 477.074 620.077 476.461C619.858 475.979 620.472 475.454 621.655 474.884C621.742 474.841 621.874 474.797 621.961 474.709C623.627 473.965 626.124 473.177 628.797 472.301C628.841 472.345 628.928 472.345 629.015 472.389C630.812 473.002 637.078 474.972 644.439 473.572C650.573 472.389 656.663 469.499 661.351 468.098C661.746 468.011 662.14 467.879 662.534 467.791C662.622 467.747 662.71 467.747 662.797 467.704C662.885 467.879 662.929 468.098 662.973 468.273C663.411 469.761 663.805 471.338 663.805 472.958Z" fill="#365DA4"/>
<path d="M662.227 475.761L661.964 476.242L661.176 477.731L660.081 479.789H654.691V478.694L654.647 477.512V476.987L661.92 475.804L662.227 475.761Z" fill="#365DA4"/>
<path d="M679.856 469.586C680.163 471.075 680.469 472.608 680.382 474.184C680.163 475.06 679.593 475.717 678.761 476.242L677.972 477.731C677.14 478.125 675.124 478.431 672.539 478.694L672.495 477.468C672.144 477.468 671.794 477.468 671.443 477.512V477.468C668.376 477.512 664.564 477.775 659.92 479.613C659.876 479.613 659.832 479.657 659.788 479.657C658.956 479.701 658.123 479.745 657.379 479.789H646.074C640.641 479.001 638.494 476.812 638.1 475.717C638.1 475.41 642.175 473.397 645.548 472.433C645.592 472.433 645.68 472.389 645.811 472.389C646.293 472.214 647.214 471.863 647.432 471.819C648.046 471.601 648.747 471.425 649.36 471.25C655.013 469.586 658.825 465.821 663.294 461.661C668.42 456.888 675.386 435.608 674.467 435.214L685.99 436.702C685.99 436.702 676.745 455.181 677.49 460.917C677.796 463.456 678.716 465.602 679.33 467.791C679.374 467.879 679.374 468.011 679.418 468.099C679.549 468.405 679.637 468.711 679.724 469.018C679.768 469.236 679.812 469.411 679.856 469.586Z" fill="#FFB27D"/>
<path d="M778.008 186.892L774.15 202.192L753.896 282.171C753.123 283.377 746.673 285.925 739.538 288.318C731.043 291.155 721.554 293.832 719.76 293.674C716.474 293.408 714.657 286.549 715.592 284.616C716.199 283.339 727.029 277.596 735.498 272.448C740.225 269.577 744.211 266.896 745.314 265.299C747.303 262.339 752.254 235.107 756.286 215.178C758.343 204.954 760.18 196.645 761.243 194.467C763.941 188.783 774.444 187.246 777.288 186.952C777.742 186.893 778.008 186.892 778.008 186.892Z" fill="#466AA5"/>
<path d="M821.183 309.827L771.624 307.802C771.624 307.802 696.247 312.666 689.854 323.615L663.586 459.103C663.586 459.103 668.171 460.667 671.048 460.881C675.635 461.223 678.785 459.718 678.785 459.718C678.785 459.718 714.121 411.562 718.854 382.028C722.809 357.347 724.372 354.769 737.912 355.281C751.452 355.793 792.998 359.063 812.74 355.242C832.481 351.421 821.183 309.827 821.183 309.827Z" fill="#2B478B"/>
<path d="M680.601 472.958C680.601 473.396 680.556 473.834 680.382 474.184C680.163 475.06 679.593 475.717 678.761 476.242C678.673 476.329 678.585 476.373 678.497 476.417C678.497 476.417 678.497 476.417 678.454 476.417C678.41 476.461 678.366 476.461 678.322 476.505C676.876 477.38 674.948 477.38 672.495 477.468H671.443C668.376 477.512 664.564 477.775 659.92 479.613C659.876 479.613 659.832 479.657 659.788 479.657C659.657 479.701 659.569 479.745 659.437 479.789H640.29C637.661 478.738 637.136 477.074 636.873 476.461C636.654 475.979 637.267 475.454 638.45 474.884C638.538 474.841 638.669 474.797 638.757 474.709C640.422 473.965 642.92 473.177 645.592 472.301C645.636 472.345 645.724 472.345 645.811 472.389C647.608 473.002 653.873 474.972 661.234 473.572C667.369 472.389 673.459 469.499 678.147 468.098C678.541 468.011 678.935 467.879 679.33 467.791C679.418 467.747 679.505 467.747 679.593 467.704C679.681 467.879 679.724 468.098 679.768 468.273C680.207 469.761 680.601 471.338 680.601 472.958Z" fill="#466AA5"/>
<path d="M679.023 475.761L678.76 476.242L677.972 477.731L676.876 479.789H671.487V478.694L671.443 477.512V476.987L678.716 475.804L679.023 475.761Z" fill="#466AA5"/>
<path d="M802.799 165.389C826.567 163.584 831.216 114.834 802.938 120.771C802.938 120.771 798.975 118.183 797.015 118.157C797.015 118.157 798.53 118.709 799.191 119.657C796.136 118.975 791.397 117.868 787.667 119.983C749.428 141.66 793.586 166.088 802.799 165.389Z" fill="#163560"/>
<path d="M775.979 191.345C775.884 191.37 783.796 197.253 790.584 196.53C796.967 195.854 802.246 188.58 802.164 188.549C799.659 187.615 799.49 183.939 802.022 168.671L800.815 168.712L780.505 169.418C780.505 169.418 779.948 175.68 779.016 181.512C778.235 186.409 777.185 191.004 775.979 191.345Z" fill="#FFB27D"/>
<path d="M774.15 202.192L753.895 282.171C753.123 283.377 746.673 285.925 739.538 288.318C738.934 286.845 738.364 285.155 737.823 283.294C736.74 279.569 735.953 275.937 735.499 272.448C740.226 269.577 744.211 266.896 745.314 265.299C747.303 262.339 752.254 235.107 756.286 215.178C765.366 206.269 773.932 201.89 773.932 201.89L774.15 202.192Z" fill="#2B478B"/>
<path d="M780.505 169.418C780.505 169.418 779.948 175.679 779.016 181.512C790.078 182.986 797.527 173.89 800.815 168.712L780.505 169.418Z" fill="#EF9A60"/>
<path d="M803.195 166.9C803.195 166.9 810.444 158.723 813.093 151.156C814.984 145.754 815.494 124.675 794.279 124.286C794.279 124.286 788.161 123.903 781.88 126.806C776.886 129.116 769.325 134.623 773.67 153.792L774.571 160.176L803.195 166.9Z" fill="#163560"/>
<path d="M775.932 174.343C775.932 174.343 801.916 178.993 804.565 162.778C807.214 146.562 812.351 136.242 795.873 132.587C779.395 128.932 775.153 134.592 772.952 139.79C770.75 144.987 769.241 172.715 775.932 174.343Z" fill="#FFB27D"/>
<path d="M784.072 130.267C784.072 130.267 788.118 150.45 798.61 155.037C809.1 159.624 814.325 157.462 814.325 157.462C814.325 157.462 807.009 149.435 807.154 137.516C807.154 137.516 790.922 122.083 784.072 130.267Z" fill="#163560"/>
<path d="M785.589 132.098C785.589 132.098 779.573 135.483 777.604 139.403C775.635 143.322 773.672 151.73 771.239 151.039C771.239 151.039 767.962 137.235 775.189 130.898C782.852 124.178 785.589 132.098 785.589 132.098Z" fill="#163560"/>
<path d="M823.228 334.435C821.163 338.138 816.676 338.431 811.036 336.808C808.317 336.057 805.366 334.824 802.269 333.391C801.988 333.212 801.655 333.07 801.367 332.935C792.235 328.483 782.048 321.776 774.088 316.671C757.401 305.983 756.297 311.971 751.351 306.068C751.351 306.068 756.434 300.726 749.912 238.321C748.062 220.455 778.008 186.893 778.008 186.893C778.008 186.893 778.209 197.97 802.153 188.542C803.002 188.236 809.547 202.338 815.263 219.366C816.197 222.09 817.081 224.85 817.915 227.647C821.898 240.846 824.856 254.633 824.055 264.218C823.864 266.493 823.484 268.561 822.85 270.276C822.779 270.443 822.708 270.609 822.636 270.774C814.418 290.513 829.131 323.77 823.228 334.435Z" fill="#466AA5"/>
<path d="M740.847 256.458L696.715 253.305L715.613 304.727L756.939 309.01L740.847 256.458Z" fill="#B64C41"/>
<path d="M740.455 257.015L696.323 253.862L715.221 305.283L756.548 309.567L740.455 257.015Z" fill="#D6716B"/>
<path d="M736.482 256.148C736.482 256.148 737.544 249.485 733.786 249.349C730.027 249.212 727.83 255.723 727.83 255.723L736.482 256.148Z" fill="#B2CBFD"/>
<path d="M729.42 262.18C730.469 266.92 736.54 274.677 736.175 278.6L707.968 278.235C707.968 278.235 708.151 276.41 702.127 263.456C699.65 258.13 702.582 248.506 705.123 248.287L733.778 249.338C733.778 249.338 727.375 252.942 729.42 262.18Z" fill="#D2E9FF"/>
<path d="M696.716 253.305L696.323 253.864L697.298 253.926L697.212 253.581L696.716 253.305Z" fill="#B64C41"/>
<path d="M756.548 309.567L756.939 309.01L756.195 308.434L756.548 309.567Z" fill="#B64C41"/>
<path d="M823.228 334.435C821.163 338.138 816.676 338.431 811.036 336.808C808.317 336.057 805.366 334.824 802.269 333.391C791.303 326.292 779.562 314.941 772.97 296.75C758.159 255.892 815.114 226.306 815.114 226.306L817.915 227.647C821.899 240.846 824.856 254.632 824.055 264.217C823.864 266.493 823.484 268.56 822.85 270.276C822.779 270.442 822.708 270.608 822.637 270.774C814.418 290.513 829.131 323.77 823.228 334.435Z" fill="#2B478B"/>
<path d="M774.845 268.168L773.059 266.9L755.935 291L757.721 292.268L774.845 268.168Z" fill="#D16E24"/>
<path d="M755.913 290.95L755.776 293.096L757.7 292.218L755.913 290.95Z" fill="#F1A34F"/>
<path d="M778.75 280.563C778.75 280.563 771.026 277.357 767.107 278.257C763.188 279.159 755.218 281.777 755.568 283.929C755.918 286.08 764.455 288.58 768.462 287.134C772.469 285.689 774.773 288.716 779.509 287.947C784.245 287.178 778.75 280.563 778.75 280.563Z" fill="#FFB27D"/>
<path d="M802.165 188.549C802.165 188.549 826.488 192.676 829.517 199.082C832.547 205.487 830.533 272.623 828.644 279.71C826.754 286.797 787.466 290.135 775.699 289.707C775.699 289.707 773.848 281.737 776.049 277.288C778.25 272.839 807.327 268.031 809.714 264.722C812.1 261.412 804.941 220.607 805.866 212.624C806.791 204.641 802.165 188.549 802.165 188.549Z" fill="#466AA5"/>
<path d="M706.856 283.128C706.856 283.128 714.889 282.35 713.801 285.639C712.712 288.928 709.68 290.517 709.68 290.517C709.68 290.517 703.47 286.045 706.856 283.128Z" fill="#FFB27D"/>
<path d="M851.795 329.314V377.836C851.795 386.361 849.385 393.257 846.405 393.257H751.326C748.346 393.257 745.937 386.361 745.937 377.836V329.314C745.937 320.789 753.518 312.346 779.533 313.893H846.405C849.385 313.893 851.795 320.789 851.795 329.314Z" fill="#F1A34F"/>
<path d="M864.392 329.314V377.836C864.392 386.361 861.981 393.257 859.002 393.257H763.923C760.943 393.257 758.533 386.361 758.533 377.836V329.314C758.533 320.789 766.662 313.168 785.832 313.893L853.745 313.441C864.425 313.441 864.392 320.789 864.392 329.314Z" fill="#DF812F"/>
<path d="M964.406 350.773H840.788C837.848 350.773 835.442 353.176 835.442 356.115V358.03C835.442 360.968 837.848 363.372 840.788 363.372H897.801L900.999 461.172C885.233 461.668 872.207 469.476 868.777 479.833H936.416C933.013 469.558 920.166 461.796 904.568 461.189L907.402 363.372H964.406C967.346 363.372 969.751 360.968 969.751 358.03V356.115C969.752 353.176 967.346 350.773 964.406 350.773Z" fill="#4A75CB"/>
<path d="M894.828 340.498C894.041 340.012 892.509 340.202 891.399 340.435V338.829C891.399 338.474 891.374 338.124 891.331 337.78H874.682C874.638 338.124 874.614 338.474 874.614 338.829V342.094C874.614 346.707 878.39 350.481 883.006 350.481C885.506 350.481 887.758 349.373 889.299 347.625L889.298 347.627C889.298 347.627 893.259 346.652 894.503 345.177C895.746 343.702 896.149 341.314 894.828 340.498ZM893.949 343.517C893.529 344.603 891.64 345.187 890.708 345.414C891.081 344.557 891.313 343.627 891.378 342.653C891.953 341.866 892.861 341.406 893.527 341.527C894.121 341.635 894.481 342.143 893.949 343.517Z" fill="#699DEE"/>
<path d="M875.977 338.826V342.092C875.977 346.704 879.753 350.481 884.367 350.481C884.749 350.481 885.127 350.454 885.495 350.399C881.409 349.848 878.233 346.322 878.233 342.092V338.826C878.233 338.472 878.256 338.121 878.301 337.777H876.045C876 338.121 875.977 338.472 875.977 338.826Z" fill="#AFCDFB"/>
<path d="M886.426 349.748H879.575V350.773H886.426V349.748Z" fill="#699DEE"/>
<path d="M938.917 340.498C938.13 340.012 936.598 340.202 935.488 340.435V338.829C935.488 338.474 935.463 338.124 935.419 337.78H918.771C918.728 338.124 918.703 338.474 918.703 338.829V342.094C918.703 346.707 922.479 350.481 927.095 350.481C929.595 350.481 931.847 349.373 933.388 347.625L933.387 347.627C933.387 347.627 937.348 346.652 938.591 345.177C939.835 343.702 940.238 341.314 938.917 340.498ZM938.038 343.517C937.618 344.603 935.729 345.187 934.797 345.414C935.17 344.557 935.402 343.627 935.468 342.653C936.042 341.866 936.95 341.406 937.616 341.527C938.21 341.635 938.57 342.143 938.038 343.517Z" fill="#699DEE"/>
<path d="M920.066 338.826V342.092C920.066 346.704 923.842 350.481 928.456 350.481C928.838 350.481 929.216 350.454 929.584 350.399C925.498 349.848 922.322 346.322 922.322 342.092V338.826C922.322 338.472 922.346 338.121 922.39 337.777H920.134C920.09 338.121 920.066 338.472 920.066 338.826Z" fill="#AFCDFB"/>
<path d="M930.515 349.748H923.664V350.773H930.515V349.748Z" fill="#699DEE"/>
<path d="M986.82 482H0.98693C0.444249 482 0 481.556 0 481.014V480.774C0 480.231 0.444249 479.787 0.98693 479.787H986.82C987.363 479.787 987.807 480.231 987.807 480.774V481.014C987.807 481.556 987.363 482 986.82 482Z" fill="#283250"/>
</svg>
